<svg width="11" height="11" viewBox="0 0 11 11" fill="none" xmlns="http://www.w3.org/2000/svg">
<path d="M5.49995 10.9999C8.53572 10.9999 10.9999 8.53571 10.9999 5.49995C10.9999 2.46419 8.53572 0 5.49995 0C2.46419 0 0 2.46419 0 5.49995C0 8.53571 2.46419 10.9999 5.49995 10.9999ZM5.49995 10.0832C2.96566 10.0832 0.91666 8.03425 0.91666 5.49995C0.91666 2.96566 2.96566 0.91666 5.49995 0.91666C8.03425 0.91666 10.0832 2.96566 10.0832 5.49995C10.0832 8.03425 8.03425 10.0832 5.49995 10.0832Z" fill="white" fill-opacity="0.85"/>
<path d="M5.50004 8.02883C6.45447 8.02883 7.21472 7.5759 7.47357 6.84795C7.51129 6.75093 7.52205 6.68081 7.52205 6.59992C7.52205 6.37348 7.37651 6.23329 7.15001 6.23329C6.98823 6.23329 6.8804 6.31413 6.79415 6.4975C6.57307 7.0259 6.12014 7.31711 5.51082 7.31711C4.65347 7.31711 4.07652 6.56756 4.07652 5.45142C4.07652 4.33525 4.65347 3.58036 5.51082 3.58036C6.12014 3.58036 6.57307 3.87153 6.79415 4.40535C6.8804 4.58868 6.98823 4.66417 7.15001 4.66417C7.37651 4.66417 7.52205 4.52397 7.52205 4.2975C7.52205 4.21123 7.51129 4.14653 7.47357 4.04946C7.20931 3.32692 6.45447 2.86859 5.50004 2.86859C4.10348 2.86859 3.20839 3.87692 3.20839 5.45142C3.20839 7.0259 4.09809 8.02883 5.50004 8.02883Z" fill="white" fill-opacity="0.85"/>
</svg>
