<svg width="27" height="27" viewBox="0 0 27 27" fill="none" xmlns="http://www.w3.org/2000/svg">
<path d="M13.4999 26.9999C20.9514 26.9999 26.9999 20.9514 26.9999 13.4999C26.9999 6.04849 20.9514 0 13.4999 0C6.04849 0 0 6.04849 0 13.4999C0 20.9514 6.04849 26.9999 13.4999 26.9999ZM13.4999 24.7498C7.27936 24.7498 2.24999 19.7205 2.24999 13.4999C2.24999 7.27936 7.27936 2.24999 13.4999 2.24999C19.7205 2.24999 24.7498 7.27936 24.7498 13.4999C24.7498 19.7205 19.7205 24.7498 13.4999 24.7498Z" fill="white" fill-opacity="0.85"/>
<path d="M10.0984 19.5617C10.7866 19.5617 11.1705 19.1117 11.1705 18.3838V15.0881H13.6322L15.9218 18.8602C16.2395 19.3764 16.5175 19.5617 16.9807 19.5617C17.5498 19.5617 17.9469 19.1911 17.9469 18.6616C17.9469 18.3705 17.8675 18.1587 17.6954 17.894L15.7101 14.7837C17.2718 14.2675 18.2777 12.8779 18.2777 11.2367C18.2777 8.85437 16.5705 7.34555 13.8836 7.34555H10.0852C9.41018 7.34555 9.05283 7.82202 9.05283 8.53673V18.3838C9.05283 19.0852 9.42341 19.5617 10.0984 19.5617ZM11.1705 13.5396V8.96025H13.6322C15.1542 8.96025 16.1867 9.80731 16.1867 11.2897C16.1867 12.7323 15.1808 13.5396 13.5792 13.5396H11.1705Z" fill="white" fill-opacity="0.85"/>
</svg>
